<mxfile host="app.diagrams.net" modified="2023-01-11T07:20:15.093Z" agent="5.0 (Macintosh; Intel Mac OS X 10_15_7) AppleWebKit/537.36 (KHTML, like Gecko) Chrome/108.0.0.0 Safari/537.36" version="20.6.2" etag="J77NKd78xiwIsHirKF-K" type="github">
  <diagram id="IZu9ggaDUqHKbORB0AyF" name="第 1 页">
    <mxGraphModel dx="1845" dy="1775" grid="1" gridSize="10" guides="1" tooltips="1" connect="1" arrows="1" fold="1" page="1" pageScale="1" pageWidth="827" pageHeight="1169" math="0" shadow="0">
      <root>
        <mxCell id="0" />
        <mxCell id="1" parent="0" />
        <mxCell id="JHcvv3xPEeXk3s1rYQYH-11" value="" style="rounded=1;whiteSpace=wrap;html=1;" vertex="1" parent="1">
          <mxGeometry x="440" y="150" width="290" height="280" as="geometry" />
        </mxCell>
        <mxCell id="JHcvv3xPEeXk3s1rYQYH-2" value="鲜沐Saas" style="rounded=1;whiteSpace=wrap;html=1;" vertex="1" parent="1">
          <mxGeometry x="90" y="-40" width="120" height="60" as="geometry" />
        </mxCell>
        <mxCell id="JHcvv3xPEeXk3s1rYQYH-3" value="鲜沐商城Mall" style="rounded=1;whiteSpace=wrap;html=1;" vertex="1" parent="1">
          <mxGeometry x="250" y="-40" width="120" height="60" as="geometry" />
        </mxCell>
        <mxCell id="JHcvv3xPEeXk3s1rYQYH-4" value="鲜沐采购" style="rounded=1;whiteSpace=wrap;html=1;" vertex="1" parent="1">
          <mxGeometry x="460" y="-40" width="120" height="60" as="geometry" />
        </mxCell>
        <mxCell id="JHcvv3xPEeXk3s1rYQYH-5" value="鲜沐调拨" style="rounded=1;whiteSpace=wrap;html=1;" vertex="1" parent="1">
          <mxGeometry x="600" y="-40" width="120" height="60" as="geometry" />
        </mxCell>
        <mxCell id="JHcvv3xPEeXk3s1rYQYH-6" value="" style="rounded=1;whiteSpace=wrap;html=1;" vertex="1" parent="1">
          <mxGeometry x="-70" y="150" width="480" height="280" as="geometry" />
        </mxCell>
        <mxCell id="JHcvv3xPEeXk3s1rYQYH-14" style="edgeStyle=orthogonalEdgeStyle;rounded=0;orthogonalLoop=1;jettySize=auto;html=1;exitX=0.5;exitY=1;exitDx=0;exitDy=0;" edge="1" parent="1" source="JHcvv3xPEeXk3s1rYQYH-7" target="JHcvv3xPEeXk3s1rYQYH-13">
          <mxGeometry relative="1" as="geometry" />
        </mxCell>
        <mxCell id="JHcvv3xPEeXk3s1rYQYH-71" value="出库" style="edgeLabel;html=1;align=center;verticalAlign=middle;resizable=0;points=[];" vertex="1" connectable="0" parent="JHcvv3xPEeXk3s1rYQYH-14">
          <mxGeometry x="-0.1231" relative="1" as="geometry">
            <mxPoint y="1" as="offset" />
          </mxGeometry>
        </mxCell>
        <mxCell id="JHcvv3xPEeXk3s1rYQYH-7" value="出库任务" style="rounded=1;whiteSpace=wrap;html=1;" vertex="1" parent="1">
          <mxGeometry x="120" y="195" width="120" height="60" as="geometry" />
        </mxCell>
        <mxCell id="JHcvv3xPEeXk3s1rYQYH-16" style="edgeStyle=orthogonalEdgeStyle;rounded=0;orthogonalLoop=1;jettySize=auto;html=1;exitX=0.5;exitY=1;exitDx=0;exitDy=0;" edge="1" parent="1" source="JHcvv3xPEeXk3s1rYQYH-8" target="JHcvv3xPEeXk3s1rYQYH-15">
          <mxGeometry relative="1" as="geometry" />
        </mxCell>
        <mxCell id="JHcvv3xPEeXk3s1rYQYH-72" value="入库" style="edgeLabel;html=1;align=center;verticalAlign=middle;resizable=0;points=[];" vertex="1" connectable="0" parent="JHcvv3xPEeXk3s1rYQYH-16">
          <mxGeometry x="-0.2154" y="4" relative="1" as="geometry">
            <mxPoint y="1" as="offset" />
          </mxGeometry>
        </mxCell>
        <mxCell id="JHcvv3xPEeXk3s1rYQYH-8" value="入库任务" style="rounded=1;whiteSpace=wrap;html=1;" vertex="1" parent="1">
          <mxGeometry x="525" y="195" width="120" height="60" as="geometry" />
        </mxCell>
        <mxCell id="JHcvv3xPEeXk3s1rYQYH-10" value="出库模块" style="text;html=1;align=center;verticalAlign=middle;resizable=0;points=[];autosize=1;strokeColor=none;fillColor=none;" vertex="1" parent="1">
          <mxGeometry x="100" y="165" width="70" height="30" as="geometry" />
        </mxCell>
        <mxCell id="JHcvv3xPEeXk3s1rYQYH-12" value="入库模块" style="text;html=1;align=center;verticalAlign=middle;resizable=0;points=[];autosize=1;strokeColor=none;fillColor=none;" vertex="1" parent="1">
          <mxGeometry x="460" y="165" width="70" height="30" as="geometry" />
        </mxCell>
        <mxCell id="JHcvv3xPEeXk3s1rYQYH-13" value="出库单" style="rounded=1;whiteSpace=wrap;html=1;" vertex="1" parent="1">
          <mxGeometry x="120" y="320" width="120" height="60" as="geometry" />
        </mxCell>
        <mxCell id="JHcvv3xPEeXk3s1rYQYH-15" value="入库单" style="rounded=1;whiteSpace=wrap;html=1;" vertex="1" parent="1">
          <mxGeometry x="525" y="320" width="120" height="60" as="geometry" />
        </mxCell>
        <mxCell id="JHcvv3xPEeXk3s1rYQYH-24" value="" style="shape=flexArrow;endArrow=classic;html=1;rounded=0;" edge="1" parent="1">
          <mxGeometry width="50" height="50" relative="1" as="geometry">
            <mxPoint x="130" y="40" as="sourcePoint" />
            <mxPoint x="130" y="120" as="targetPoint" />
          </mxGeometry>
        </mxCell>
        <mxCell id="JHcvv3xPEeXk3s1rYQYH-37" value="销售出库" style="edgeLabel;html=1;align=center;verticalAlign=middle;resizable=0;points=[];" vertex="1" connectable="0" parent="JHcvv3xPEeXk3s1rYQYH-24">
          <mxGeometry x="-0.3" relative="1" as="geometry">
            <mxPoint as="offset" />
          </mxGeometry>
        </mxCell>
        <mxCell id="JHcvv3xPEeXk3s1rYQYH-29" value="" style="shape=flexArrow;endArrow=classic;html=1;rounded=0;" edge="1" parent="1">
          <mxGeometry width="50" height="50" relative="1" as="geometry">
            <mxPoint x="210" y="40" as="sourcePoint" />
            <mxPoint x="210" y="120" as="targetPoint" />
          </mxGeometry>
        </mxCell>
        <mxCell id="JHcvv3xPEeXk3s1rYQYH-36" value="销售补发出库" style="edgeLabel;html=1;align=center;verticalAlign=middle;resizable=0;points=[];" vertex="1" connectable="0" parent="JHcvv3xPEeXk3s1rYQYH-29">
          <mxGeometry x="-0.275" y="-2" relative="1" as="geometry">
            <mxPoint as="offset" />
          </mxGeometry>
        </mxCell>
        <mxCell id="JHcvv3xPEeXk3s1rYQYH-31" value="" style="shape=flexArrow;endArrow=classic;html=1;rounded=0;" edge="1" parent="1">
          <mxGeometry width="50" height="50" relative="1" as="geometry">
            <mxPoint x="480" y="40" as="sourcePoint" />
            <mxPoint x="480" y="120" as="targetPoint" />
          </mxGeometry>
        </mxCell>
        <mxCell id="JHcvv3xPEeXk3s1rYQYH-35" value="&lt;span style=&quot;font-size: 12px; background-color: rgb(248, 249, 250);&quot;&gt;采购入库&lt;/span&gt;" style="edgeLabel;html=1;align=center;verticalAlign=middle;resizable=0;points=[];" vertex="1" connectable="0" parent="JHcvv3xPEeXk3s1rYQYH-31">
          <mxGeometry x="-0.2" y="3" relative="1" as="geometry">
            <mxPoint as="offset" />
          </mxGeometry>
        </mxCell>
        <mxCell id="JHcvv3xPEeXk3s1rYQYH-39" value="" style="shape=flexArrow;endArrow=classic;html=1;rounded=0;" edge="1" parent="1">
          <mxGeometry width="50" height="50" relative="1" as="geometry">
            <mxPoint x="290" y="40" as="sourcePoint" />
            <mxPoint x="290" y="120" as="targetPoint" />
          </mxGeometry>
        </mxCell>
        <mxCell id="JHcvv3xPEeXk3s1rYQYH-40" value="销售退货入库" style="edgeLabel;html=1;align=center;verticalAlign=middle;resizable=0;points=[];" vertex="1" connectable="0" parent="JHcvv3xPEeXk3s1rYQYH-39">
          <mxGeometry x="-0.275" y="-2" relative="1" as="geometry">
            <mxPoint as="offset" />
          </mxGeometry>
        </mxCell>
        <mxCell id="JHcvv3xPEeXk3s1rYQYH-43" value="" style="shape=flexArrow;endArrow=classic;html=1;rounded=0;" edge="1" parent="1">
          <mxGeometry width="50" height="50" relative="1" as="geometry">
            <mxPoint x="550" y="40" as="sourcePoint" />
            <mxPoint x="550" y="120" as="targetPoint" />
          </mxGeometry>
        </mxCell>
        <mxCell id="JHcvv3xPEeXk3s1rYQYH-44" value="&lt;span style=&quot;font-size: 12px; background-color: rgb(248, 249, 250);&quot;&gt;采购退货出库&lt;/span&gt;" style="edgeLabel;html=1;align=center;verticalAlign=middle;resizable=0;points=[];" vertex="1" connectable="0" parent="JHcvv3xPEeXk3s1rYQYH-43">
          <mxGeometry x="-0.2" y="3" relative="1" as="geometry">
            <mxPoint as="offset" />
          </mxGeometry>
        </mxCell>
        <mxCell id="JHcvv3xPEeXk3s1rYQYH-45" value="" style="shape=flexArrow;endArrow=classic;html=1;rounded=0;" edge="1" parent="1">
          <mxGeometry width="50" height="50" relative="1" as="geometry">
            <mxPoint x="620" y="40" as="sourcePoint" />
            <mxPoint x="620" y="120" as="targetPoint" />
          </mxGeometry>
        </mxCell>
        <mxCell id="JHcvv3xPEeXk3s1rYQYH-46" value="&lt;span style=&quot;font-size: 12px; background-color: rgb(248, 249, 250);&quot;&gt;调拨出库&lt;/span&gt;" style="edgeLabel;html=1;align=center;verticalAlign=middle;resizable=0;points=[];" vertex="1" connectable="0" parent="JHcvv3xPEeXk3s1rYQYH-45">
          <mxGeometry x="-0.2" y="3" relative="1" as="geometry">
            <mxPoint as="offset" />
          </mxGeometry>
        </mxCell>
        <mxCell id="JHcvv3xPEeXk3s1rYQYH-47" value="" style="shape=flexArrow;endArrow=classic;html=1;rounded=0;" edge="1" parent="1">
          <mxGeometry width="50" height="50" relative="1" as="geometry">
            <mxPoint x="680" y="40" as="sourcePoint" />
            <mxPoint x="680" y="120" as="targetPoint" />
          </mxGeometry>
        </mxCell>
        <mxCell id="JHcvv3xPEeXk3s1rYQYH-48" value="&lt;span style=&quot;font-size: 12px; background-color: rgb(248, 249, 250);&quot;&gt;调拨入库&lt;/span&gt;" style="edgeLabel;html=1;align=center;verticalAlign=middle;resizable=0;points=[];" vertex="1" connectable="0" parent="JHcvv3xPEeXk3s1rYQYH-47">
          <mxGeometry x="-0.2" y="3" relative="1" as="geometry">
            <mxPoint as="offset" />
          </mxGeometry>
        </mxCell>
        <mxCell id="JHcvv3xPEeXk3s1rYQYH-49" value="检货任务" style="rounded=1;whiteSpace=wrap;html=1;" vertex="1" parent="1">
          <mxGeometry x="270" y="195" width="120" height="60" as="geometry" />
        </mxCell>
        <mxCell id="JHcvv3xPEeXk3s1rYQYH-73" style="edgeStyle=orthogonalEdgeStyle;rounded=0;orthogonalLoop=1;jettySize=auto;html=1;exitX=1;exitY=0.5;exitDx=0;exitDy=0;" edge="1" parent="1" source="JHcvv3xPEeXk3s1rYQYH-51" target="JHcvv3xPEeXk3s1rYQYH-7">
          <mxGeometry relative="1" as="geometry" />
        </mxCell>
        <mxCell id="JHcvv3xPEeXk3s1rYQYH-74" value="货损出库" style="edgeLabel;html=1;align=center;verticalAlign=middle;resizable=0;points=[];" vertex="1" connectable="0" parent="JHcvv3xPEeXk3s1rYQYH-73">
          <mxGeometry x="-0.28" y="1" relative="1" as="geometry">
            <mxPoint y="1" as="offset" />
          </mxGeometry>
        </mxCell>
        <mxCell id="JHcvv3xPEeXk3s1rYQYH-51" value="货损任务" style="rounded=1;whiteSpace=wrap;html=1;" vertex="1" parent="1">
          <mxGeometry x="-50" y="190" width="90" height="65" as="geometry" />
        </mxCell>
        <mxCell id="JHcvv3xPEeXk3s1rYQYH-54" value="" style="shape=flexArrow;endArrow=classic;html=1;rounded=0;" edge="1" parent="1">
          <mxGeometry width="50" height="50" relative="1" as="geometry">
            <mxPoint x="730" y="40" as="sourcePoint" />
            <mxPoint x="730" y="120" as="targetPoint" />
          </mxGeometry>
        </mxCell>
        <mxCell id="JHcvv3xPEeXk3s1rYQYH-55" value="&lt;span style=&quot;font-size: 12px; background-color: rgb(248, 249, 250);&quot;&gt;缺货入库&lt;/span&gt;" style="edgeLabel;html=1;align=center;verticalAlign=middle;resizable=0;points=[];" vertex="1" connectable="0" parent="JHcvv3xPEeXk3s1rYQYH-54">
          <mxGeometry x="-0.2" y="3" relative="1" as="geometry">
            <mxPoint as="offset" />
          </mxGeometry>
        </mxCell>
        <mxCell id="JHcvv3xPEeXk3s1rYQYH-56" value="" style="rounded=1;whiteSpace=wrap;html=1;" vertex="1" parent="1">
          <mxGeometry x="80" y="460" width="640" height="280" as="geometry" />
        </mxCell>
        <mxCell id="JHcvv3xPEeXk3s1rYQYH-57" value="库内模块" style="text;html=1;align=center;verticalAlign=middle;resizable=0;points=[];autosize=1;strokeColor=none;fillColor=none;" vertex="1" parent="1">
          <mxGeometry x="100" y="480" width="70" height="30" as="geometry" />
        </mxCell>
        <mxCell id="JHcvv3xPEeXk3s1rYQYH-58" value="货检任务" style="rounded=1;whiteSpace=wrap;html=1;" vertex="1" parent="1">
          <mxGeometry x="294" y="520" width="120" height="60" as="geometry" />
        </mxCell>
        <mxCell id="JHcvv3xPEeXk3s1rYQYH-59" value="转换任务" style="rounded=1;whiteSpace=wrap;html=1;" vertex="1" parent="1">
          <mxGeometry x="290" y="620" width="120" height="60" as="geometry" />
        </mxCell>
        <mxCell id="JHcvv3xPEeXk3s1rYQYH-60" value="盘点任务" style="rounded=1;whiteSpace=wrap;html=1;" vertex="1" parent="1">
          <mxGeometry x="450" y="520" width="120" height="60" as="geometry" />
        </mxCell>
        <mxCell id="JHcvv3xPEeXk3s1rYQYH-61" value="加工任务" style="rounded=1;whiteSpace=wrap;html=1;dashed=1;" vertex="1" parent="1">
          <mxGeometry x="130" y="620" width="120" height="60" as="geometry" />
        </mxCell>
        <mxCell id="JHcvv3xPEeXk3s1rYQYH-62" value="称重任务&lt;br&gt;（商品校验）" style="rounded=1;whiteSpace=wrap;html=1;" vertex="1" parent="1">
          <mxGeometry x="130" y="520" width="120" height="60" as="geometry" />
        </mxCell>
        <mxCell id="JHcvv3xPEeXk3s1rYQYH-63" value="" style="rounded=1;whiteSpace=wrap;html=1;" vertex="1" parent="1">
          <mxGeometry x="770" y="150" width="260" height="590" as="geometry" />
        </mxCell>
        <mxCell id="JHcvv3xPEeXk3s1rYQYH-64" value="基础要素" style="text;html=1;align=center;verticalAlign=middle;resizable=0;points=[];autosize=1;strokeColor=none;fillColor=none;" vertex="1" parent="1">
          <mxGeometry x="790" y="165" width="70" height="30" as="geometry" />
        </mxCell>
        <mxCell id="JHcvv3xPEeXk3s1rYQYH-65" value="商品信息" style="rounded=1;whiteSpace=wrap;html=1;" vertex="1" parent="1">
          <mxGeometry x="850" y="200" width="120" height="60" as="geometry" />
        </mxCell>
        <mxCell id="JHcvv3xPEeXk3s1rYQYH-66" value="仓库" style="rounded=1;whiteSpace=wrap;html=1;" vertex="1" parent="1">
          <mxGeometry x="850" y="280" width="120" height="60" as="geometry" />
        </mxCell>
        <mxCell id="JHcvv3xPEeXk3s1rYQYH-68" value="库存" style="rounded=1;whiteSpace=wrap;html=1;" vertex="1" parent="1">
          <mxGeometry x="850" y="370" width="120" height="60" as="geometry" />
        </mxCell>
        <mxCell id="JHcvv3xPEeXk3s1rYQYH-69" value="采购批次库存" style="rounded=1;whiteSpace=wrap;html=1;" vertex="1" parent="1">
          <mxGeometry x="850" y="465" width="120" height="60" as="geometry" />
        </mxCell>
        <mxCell id="JHcvv3xPEeXk3s1rYQYH-70" value="生产批次库存" style="rounded=1;whiteSpace=wrap;html=1;" vertex="1" parent="1">
          <mxGeometry x="850" y="560" width="120" height="60" as="geometry" />
        </mxCell>
      </root>
    </mxGraphModel>
  </diagram>
</mxfile>
